<svg width="40" height="40" viewBox="0 0 40 40" fill="none" xmlns="http://www.w3.org/2000/svg">
<rect width="40" height="40" rx="5" fill="#D5906E" fill-opacity="0.3"/>
<path d="M19.8844 16.8252V13.0157H15.9191V10.476H19.8844V6.6665H22.528V10.476H26.4933V13.0157H22.528V16.8252H19.8844ZM14.5974 33.3332C13.8704 33.3332 13.2483 33.0847 12.731 32.5878C12.2129 32.09 11.9538 31.4919 11.9538 30.7935C11.9538 30.0951 12.2129 29.497 12.731 28.9992C13.2483 28.5023 13.8704 28.2538 14.5974 28.2538C15.3243 28.2538 15.9464 28.5023 16.4637 28.9992C16.9818 29.497 17.2409 30.0951 17.2409 30.7935C17.2409 31.4919 16.9818 32.09 16.4637 32.5878C15.9464 33.0847 15.3243 33.3332 14.5974 33.3332ZM27.815 33.3332C27.0881 33.3332 26.466 33.0847 25.9487 32.5878C25.4306 32.09 25.1715 31.4919 25.1715 30.7935C25.1715 30.0951 25.4306 29.497 25.9487 28.9992C26.466 28.5023 27.0881 28.2538 27.815 28.2538C28.542 28.2538 29.1646 28.5023 29.6827 28.9992C30.1999 29.497 30.4586 30.0951 30.4586 30.7935C30.4586 31.4919 30.1999 32.09 29.6827 32.5878C29.1646 33.0847 28.542 33.3332 27.815 33.3332ZM14.5974 26.984C13.606 26.984 12.846 26.5658 12.3173 25.7294C11.7886 24.8938 11.7776 24.0633 12.2843 23.2379L14.0686 20.1268L9.31028 10.476H6.66675V7.93635H10.9955L16.6131 19.3649H25.8985L31.0203 10.476L33.3334 11.6824L28.2116 20.5713C27.9692 20.9945 27.6498 21.3226 27.2533 21.5554C26.8568 21.7882 26.4051 21.9046 25.8985 21.9046H16.0513L14.5974 24.4443H30.4586V26.984H14.5974Z" fill="#402101"/>
</svg>
